<svg xmlns="http://www.w3.org/2000/svg" width="245" height="300" viewBox="10 0 230 250" version="1.1"><path d="M 57.329 262.621 C 53.731 268.111, 51.511 288.111, 54.200 290.800 C 56.253 292.853, 57.968 292.136, 59.701 288.500 C 61.509 284.708, 63.136 283.765, 62.290 286.998 C 61.682 289.326, 64.426 294, 66.401 294 C 67.146 294, 68.315 293.325, 69 292.500 C 69.685 291.675, 71.167 291, 72.294 291 C 73.421 291, 75.165 290.255, 76.171 289.345 C 77.886 287.793, 78 287.817, 78 289.738 C 78 292.573, 80.465 293.248, 82.521 290.976 C 84.018 289.323, 84.412 289.269, 85.687 290.544 C 87.320 292.177, 88.004 292.297, 89.610 291.235 C 91.171 290.202, 94.236 284, 93.186 284 C 92.710 284, 91.808 285.125, 91.182 286.500 C 89.948 289.209, 88.493 289.737, 87.741 287.750 C 87.481 287.063, 87.700 283.516, 88.227 279.868 C 89.030 274.316, 89.578 273.057, 91.593 272.139 C 92.917 271.536, 94 270.567, 94 269.986 C 94 269.271, 93.310 269.299, 91.865 270.072 C 89.875 271.137, 89.776 271.030, 90.413 268.491 C 92.254 261.156, 92.283 260, 90.629 260 C 89.497 260, 88.497 261.841, 87.311 266.106 C 86.377 269.464, 85.025 272.437, 84.307 272.713 C 83.588 272.988, 83 273.867, 83 274.666 C 83 275.476, 83.491 275.815, 84.111 275.431 C 85.431 274.616, 84.358 284.382, 82.804 287.336 C 81.298 290.198, 80.643 288.464, 81.884 284.902 C 83.503 280.258, 83.334 277.658, 81.460 278.377 C 80.614 278.702, 79.037 278.416, 77.957 277.741 C 75.047 275.924, 72.775 277.840, 71.003 283.607 C 70.176 286.298, 69.106 289.111, 68.625 289.857 C 67.265 291.965, 66.034 289.319, 66.015 284.250 C 65.992 277.844, 62.708 278.849, 58.665 286.500 L 57.080 289.500 57.040 285.710 C 57.018 283.626, 57.845 280.251, 58.877 278.210 C 60.751 274.504, 63 265.637, 63 261.951 C 63 259.064, 59.379 259.492, 57.329 262.621 M 177.048 262.171 C 176.509 263.452, 175.598 266.366, 175.023 268.647 C 174.449 270.928, 173.308 273.052, 172.489 273.366 C 171.670 273.680, 171 274.387, 171 274.937 C 171 275.487, 171.675 275.678, 172.500 275.362 C 174.191 274.713, 174.240 275.314, 173.071 282.431 C 172.365 286.733, 172.437 287.123, 173.631 285.490 C 174.436 284.389, 175 284.145, 175 284.899 C 175 286.609, 169.836 292.017, 168.809 291.382 C 168.364 291.107, 168 289.139, 168 287.008 C 168 284.147, 167.527 282.985, 166.188 282.560 C 164.761 282.107, 164.389 280.976, 164.438 277.242 C 164.492 273.146, 164.228 272.500, 162.500 272.500 C 161.167 272.500, 160.167 273.500, 159.500 275.500 C 158.549 278.352, 156.096 279.429, 154.404 277.737 C 151.811 275.144, 147.812 278.544, 146.449 284.500 C 145.790 287.378, 145.827 287.419, 147.349 285.500 C 148.222 284.400, 148.951 283.810, 148.968 284.188 C 148.986 284.567, 147.650 286.355, 146 288.161 C 142.609 291.874, 142.320 291.098, 144.147 283.182 C 146.398 273.432, 142.875 272.723, 137.684 281.882 L 134.500 287.500 134.190 283.750 C 133.835 279.469, 132.792 279.031, 130.557 282.223 L 129 284.445 129 282.282 C 129 279.809, 127.262 278.338, 125.922 279.678 C 124.637 280.963, 123.627 289.379, 124.393 292.429 C 125.408 296.474, 127.607 295.459, 129.114 290.250 L 130.488 285.500 130.994 289.422 C 131.272 291.579, 132.019 293.514, 132.653 293.723 C 133.288 293.932, 134.950 291.604, 136.348 288.551 C 137.746 285.498, 139.179 283, 139.533 283 C 139.886 283, 139.882 284.739, 139.523 286.864 C 139.034 289.756, 139.282 291.139, 140.507 292.364 C 142.506 294.363, 143.412 294.414, 144.908 292.611 C 145.542 291.847, 147.060 291.005, 148.281 290.739 C 149.501 290.474, 151.287 289.926, 152.250 289.522 C 153.466 289.011, 154 289.244, 154 290.286 C 154 291.111, 154.690 292.051, 155.534 292.375 C 156.593 292.781, 157.976 291.530, 160.006 288.329 C 163.020 283.577, 163.633 283.731, 164.207 289.387 C 164.373 291.018, 165.458 292.906, 166.704 293.728 C 168.716 295.056, 169.120 294.971, 171.348 292.743 C 173.170 290.921, 174.214 290.540, 175.466 291.241 C 176.640 291.898, 177.659 291.714, 178.856 290.630 C 180.413 289.222, 180.681 289.259, 181.793 291.040 C 183.702 294.098, 187.389 293.460, 190.896 289.465 C 192.603 287.521, 194 285.470, 194 284.906 C 194 284.343, 194.450 284.160, 195 284.500 C 195.550 284.840, 196 286.641, 196 288.502 C 196 292.630, 199.232 295.481, 202.144 293.923 C 204.615 292.601, 207.211 287.376, 206.737 284.682 C 206.364 282.571, 206.328 282.565, 205.621 284.500 C 202.831 292.135, 200.663 293.161, 200.195 287.068 C 199.981 284.283, 199.348 282.928, 198.071 282.522 C 196.563 282.044, 196.338 281.184, 196.754 277.490 C 197.150 273.974, 196.910 272.903, 195.615 272.406 C 194.713 272.060, 193.305 272.332, 192.487 273.011 C 190.728 274.471, 190.510 280.110, 192.149 281.749 C 193.014 282.614, 192.845 283.589, 191.465 285.699 C 188.815 289.751, 187.154 291.213, 186.008 290.505 C 184.324 289.464, 184.867 287.041, 187.582 283.481 C 190.429 279.749, 190.463 276.713, 187.664 276.174 C 185.737 275.803, 182.015 278.572, 181.978 280.405 C 181.966 281.007, 181.053 283.490, 179.950 285.922 C 177.108 292.187, 175.531 290.206, 176.459 281.537 C 177.157 275.025, 177.521 274.302, 181.498 271.548 C 182.598 270.786, 183.171 269.838, 182.773 269.439 C 182.374 269.041, 181.288 269.342, 180.358 270.107 C 178.812 271.381, 178.723 271.201, 179.317 268 C 180.512 261.555, 180.506 260.717, 179.264 260.279 C 178.585 260.039, 177.588 260.891, 177.048 262.171 M 60.041 265.393 C 58.720 268.867, 57.605 275.622, 58.488 274.796 C 59.348 273.992, 62.048 263, 61.385 263 C 61.146 263, 60.541 264.077, 60.041 265.393 M 112.782 265.227 C 107.463 269.674, 107.129 274.766, 111.642 282.588 C 114.543 287.616, 114.678 292.322, 112 295 C 109.633 297.367, 107.697 297.545, 106.040 295.548 C 104.393 293.564, 105.528 290.575, 109.053 287.608 C 112.319 284.861, 112.689 284, 110.604 284 C 108.512 284, 102.998 290.747, 103.015 293.285 C 103.050 298.276, 107.519 300.797, 112.306 298.525 C 119.565 295.081, 120.909 287.683, 115.510 280.891 C 111.205 275.475, 110.857 271.052, 114.455 267.455 C 119.281 262.628, 123.952 265.534, 120.640 271.304 C 118.480 275.069, 119.509 276.276, 122.074 272.985 C 123.321 271.385, 123.920 269.254, 123.755 267 C 123.513 263.678, 123.296 263.486, 119.500 263.227 C 116.531 263.024, 114.800 263.539, 112.782 265.227 M 43.694 268.385 C 38.883 273.576, 36.348 289.905, 39.428 295.861 C 41.810 300.467, 45.778 299.977, 48.326 294.763 C 49.330 292.708, 49.983 290.233, 49.776 289.263 C 49.525 288.088, 48.644 289.168, 47.134 292.500 C 44.995 297.219, 44.788 297.391, 43.434 295.559 C 41.331 292.712, 41.675 287.117, 44.496 278.302 C 47.624 268.529, 48.482 267.082, 50.159 268.759 C 51.136 269.736, 51.145 270.709, 50.201 273.322 C 48.768 277.283, 48.719 278, 49.879 278 C 51.294 278, 53.182 272.464, 52.827 269.357 C 52.551 266.949, 51.991 266.451, 49.260 266.187 C 46.833 265.953, 45.437 266.505, 43.694 268.385 M 161 277 C 161 277.550, 161.450 278, 162 278 C 162.550 278, 163 277.550, 163 277 C 163 276.450, 162.550 276, 162 276 C 161.450 276, 161 276.450, 161 277 M 193 277 C 193 277.550, 193.450 278, 194 278 C 194.550 278, 195 277.550, 195 277 C 195 276.450, 194.550 276, 194 276 C 193.450 276, 193 276.450, 193 277 M 186.667 279.667 C 186.300 280.033, 186 280.798, 186 281.367 C 186 281.993, 186.466 281.934, 187.183 281.217 C 187.834 280.566, 188.134 279.801, 187.850 279.517 C 187.566 279.233, 187.033 279.300, 186.667 279.667 M 75.613 282.407 C 75.280 283.731, 74.705 285.644, 74.335 286.657 C 73.694 288.409, 73.768 288.406, 75.830 286.595 C 77.024 285.547, 78 283.635, 78 282.345 C 78 279.281, 76.387 279.323, 75.613 282.407 M 151.647 281.750 C 151.378 282.712, 150.838 284.625, 150.446 286 C 149.738 288.488, 149.744 288.491, 151.867 286.595 C 153.040 285.547, 154 283.635, 154 282.345 C 154 279.611, 152.359 279.196, 151.647 281.750 M 158.146 283.578 C 157.516 284.962, 157.010 286.860, 157.022 287.797 C 157.040 289.137, 157.461 288.967, 159 287 C 161.108 284.305, 161.505 282.430, 160.146 281.590 C 159.677 281.300, 158.777 282.195, 158.146 283.578 M 71.624 285.539 C 70.659 288.053, 70.943 288.702, 72.122 286.675 C 72.706 285.671, 72.973 284.639, 72.715 284.382 C 72.458 284.124, 71.966 284.645, 71.624 285.539" stroke="none" fill="#f5f5f5" fill-rule="evenodd"/><path d="M 118.500 1.041 C 105.882 1.783, 96.616 3.306, 91.345 5.504 C 89.609 6.227, 85.559 7.338, 82.345 7.973 C 79.130 8.608, 71.100 11.752, 64.500 14.960 C 52.850 20.623, 52.109 21.181, 39.089 34.146 C 27.184 46.001, 22.313 51.965, 17.028 61.158 C 16.188 62.620, 14.741 64.870, 13.813 66.158 C 12.885 67.446, 10.059 74.963, 7.534 82.862 C 0.229 105.710, -1.105 121.876, 1.831 152 C 2.741 161.342, 6.212 170.756, 15.220 188.319 C 21.326 200.223, 31.517 211.511, 44.686 220.956 C 56.192 229.208, 63.669 232.581, 85.709 239.460 L 103.919 245.144 124.209 245.298 C 145.933 245.464, 155.948 244.074, 169.190 239.057 C 177.567 235.883, 194.724 225.256, 202.356 218.514 C 210.198 211.587, 219.941 199.996, 223.058 193.887 C 224.271 191.508, 226.095 188.423, 227.110 187.031 C 231.543 180.952, 243.786 145.616, 244.097 138 L 244.199 135.500 245 138 C 245.494 139.544, 245.781 136.102, 245.750 129 C 245.718 121.647, 245.476 119.123, 245.079 122 C 244.612 125.376, 244.302 123.379, 243.834 114 C 243.325 103.809, 242.636 99.767, 240.105 92.118 C 238.397 86.957, 236.993 81.782, 236.985 80.618 C 236.932 73.424, 219.967 44.793, 210.844 36.500 C 199.727 26.395, 172.751 9.646, 160.804 5.431 C 156.153 3.790, 135.156 -0.091, 132.328 0.167 C 131.323 0.259, 125.100 0.652, 118.500 1.041 M 144.925 62.824 C 140.232 65.024, 127 74.047, 127 75.047 C 127 75.476, 125.269 77.103, 123.152 78.663 C 116.585 83.505, 93.874 109.421, 89.247 117.353 C 88.559 118.534, 86.926 121.975, 85.619 125 C 84.312 128.025, 82.290 132.691, 81.125 135.370 C 79.589 138.901, 79.418 139.898, 80.503 138.997 C 82.850 137.050, 82.334 139.611, 79.929 141.852 C 77.744 143.887, 75.583 154.624, 77.162 155.600 C 77.623 155.885, 78 154.798, 78 153.184 C 78 148.311, 79.174 144, 80.502 144 C 81.388 144, 81.687 145.711, 81.525 149.856 C 81.399 153.076, 81.117 156.114, 80.898 156.606 C 80.679 157.098, 80.500 159.034, 80.500 160.908 C 80.500 164.460, 82.584 166.395, 83.166 163.383 C 83.399 162.175, 84.099 162.835, 85.489 165.577 C 86.584 167.735, 88.350 170.512, 89.414 171.750 C 91.659 174.361, 90.522 174.782, 87.823 172.339 C 86.813 171.426, 85.724 170.943, 85.401 171.265 C 84.588 172.079, 89.799 176.472, 91.596 176.487 C 92.401 176.494, 93.623 177.625, 94.310 179 C 96.169 182.721, 100.574 184.406, 109.500 184.808 C 116.365 185.118, 118.919 184.715, 127.500 181.966 C 133 180.204, 139.726 177.638, 142.446 176.265 C 149.374 172.767, 158.153 164.047, 162.132 156.711 C 165.288 150.890, 165.500 149.899, 165.500 140.936 C 165.500 131.671, 165.410 131.288, 162.604 128.686 C 160.790 127.003, 158.580 126, 156.687 126 C 153.233 126, 153.496 126.503, 158.171 128.838 C 161.235 130.368, 161.496 130.866, 161.447 135.101 C 161.328 145.297, 145.218 164.065, 133.621 167.516 C 130.938 168.315, 128.238 169.376, 127.621 169.875 C 125.158 171.865, 111.429 173.886, 105.676 173.105 C 99.748 172.300, 92.516 167.792, 92.505 164.894 C 92.502 164.127, 91.686 162.301, 90.691 160.835 C 89.090 158.477, 89.010 157.457, 90.002 151.991 C 91.877 141.651, 98.848 127.451, 106.443 118.500 C 109.243 115.200, 113.087 110.250, 114.985 107.500 C 123.818 94.702, 144.243 73.218, 151.314 69.286 C 157.240 65.991, 159.446 68.956, 157.450 77.533 C 156.176 83.005, 156.208 83.647, 157.827 85.269 C 159.307 86.751, 160.105 86.859, 162.745 85.939 C 166.087 84.774, 167.363 82.245, 168.577 74.385 C 169.468 68.613, 165.757 64.553, 157.701 62.487 C 150.617 60.670, 149.454 60.701, 144.925 62.824 M 0.378 130 C 0.378 136.325, 0.541 138.912, 0.739 135.750 C 0.937 132.588, 0.937 127.412, 0.739 124.250 C 0.541 121.088, 0.378 123.675, 0.378 130 M 118.813 262.683 C 119.534 262.972, 120.397 262.936, 120.729 262.604 C 121.061 262.272, 120.471 262.036, 119.417 262.079 C 118.252 262.127, 118.015 262.364, 118.813 262.683 M 47.813 265.683 C 48.534 265.972, 49.397 265.936, 49.729 265.604 C 50.061 265.272, 49.471 265.036, 48.417 265.079 C 47.252 265.127, 47.015 265.364, 47.813 265.683 M 124.079 267.583 C 124.127 268.748, 124.364 268.985, 124.683 268.188 C 124.972 267.466, 124.936 266.603, 124.604 266.271 C 124.272 265.939, 124.036 266.529, 124.079 267.583 M 53 270.500 C 53 271.325, 53.177 272, 53.393 272 C 53.609 272, 54.045 271.325, 54.362 270.500 C 54.678 269.675, 54.501 269, 53.969 269 C 53.436 269, 53 269.675, 53 270.500 M 165.079 275.583 C 165.127 276.748, 165.364 276.985, 165.683 276.188 C 165.972 275.466, 165.936 274.603, 165.604 274.271 C 165.272 273.939, 165.036 274.529, 165.079 275.583 M 197.079 275.583 C 197.127 276.748, 197.364 276.985, 197.683 276.188 C 197.972 275.466, 197.936 274.603, 197.604 274.271 C 197.272 273.939, 197.036 274.529, 197.079 275.583 M 172.731 277.080 C 173.085 278.432, 173.538 278.886, 173.788 278.137 C 174.028 277.415, 173.750 276.350, 173.168 275.768 C 172.426 275.026, 172.296 275.417, 172.731 277.080 M 161 277 C 161 277.550, 161.477 278, 162.059 278 C 162.641 278, 162.840 277.550, 162.500 277 C 162.160 276.450, 161.684 276, 161.441 276 C 161.198 276, 161 276.450, 161 277 M 193.500 277 C 193.840 277.550, 194.316 278, 194.559 278 C 194.802 278, 195 277.550, 195 277 C 195 276.450, 194.523 276, 193.941 276 C 193.359 276, 193.160 276.450, 193.500 277 M 83.667 278.667 C 83.300 279.033, 83 279.798, 83 280.367 C 83 280.993, 83.466 280.934, 84.183 280.217 C 84.834 279.566, 85.134 278.801, 84.850 278.517 C 84.566 278.233, 84.033 278.300, 83.667 278.667 M 76.500 281 C 76.840 281.550, 77.316 282, 77.559 282 C 77.802 282, 78 281.550, 78 281 C 78 280.450, 77.523 280, 76.941 280 C 76.359 280, 76.160 280.450, 76.500 281 M 66.252 285.500 C 66.263 287.700, 66.468 288.482, 66.707 287.238 C 66.946 285.994, 66.937 284.194, 66.687 283.238 C 66.437 282.282, 66.241 283.300, 66.252 285.500 M 134.195 284.500 C 134.215 286.150, 134.439 286.704, 134.693 285.731 C 134.947 284.758, 134.930 283.408, 134.656 282.731 C 134.382 282.054, 134.175 282.850, 134.195 284.500 M 172.258 285.777 C 172.353 287.037, 172.921 287.584, 173.788 287.251 C 174.547 286.960, 174.792 286.442, 174.334 286.099 C 173.875 285.757, 173.187 285.094, 172.804 284.625 C 172.421 284.157, 172.175 284.675, 172.258 285.777 M 42.079 286.583 C 42.127 287.748, 42.364 287.985, 42.683 287.188 C 42.972 286.466, 42.936 285.603, 42.604 285.271 C 42.272 284.939, 42.036 285.529, 42.079 286.583 M 195.158 288 C 195.158 289.375, 195.385 289.938, 195.662 289.250 C 195.940 288.563, 195.940 287.438, 195.662 286.750 C 195.385 286.063, 195.158 286.625, 195.158 288 M 105.079 293.583 C 105.127 294.748, 105.364 294.985, 105.683 294.188 C 105.972 293.466, 105.936 292.603, 105.604 292.271 C 105.272 291.939, 105.036 292.529, 105.079 293.583" stroke="none" fill="#141414" fill-rule="evenodd"/></svg>